<svg id="logo" xmlns="http://www.w3.org/2000/svg" width="164.706" height="24" viewBox="0 0 164.706 24">
  <defs>
    <style>
      .cls-1 {
        fill: #fff;
        opacity: 0;
      }

      .cls-2 {
        stroke: rgba(0,0,0,0);
        stroke-miterlimit: 10;
      }

      .cls-3 {
        fill: #de2233;
      }

      .cls-4 {
        opacity: 0.4;
      }

      .cls-5 {
        opacity: 0.2;
      }
    </style>
  </defs>
  <rect id="長方形_18475" data-name="長方形 18475" class="cls-1" width="163.2" height="24"/>
  <g id="グループ_16893" data-name="グループ 16893" transform="translate(27.938 5.925)">
    <path id="合体_69" data-name="合体 69" class="cls-2" d="M75.969,6.739c.951-2.2,1.9-4.4,2.917-6.739,2.162.088,4.336.173,6.508.271a1.983,1.983,0,0,1,.521.138c1.891.638,2.4,2.225,1.194,3.816a5.908,5.908,0,0,1-3.987,2.336c-2.329.3-4.694.321-7.04.464C76.043,6.93,76.007,6.834,75.969,6.739Zm5.759-5.01c-.5,1.161-.979,2.272-1.491,3.459a3.214,3.214,0,0,0,3.437-1.472c.7-1.14.248-1.949-1.063-1.984-.123,0-.247,0-.373,0Zm-71,5.077c.271-.624.483-1.114.683-1.574H13a1.6,1.6,0,0,0,1.617-1.083c.56-1.349,1.154-2.681,1.739-4.03h3.314a1.1,1.1,0,0,1-.027.328C19.006,1.934,18.371,3.425,17.7,4.9a3.054,3.054,0,0,1-1.8,1.637A8.038,8.038,0,0,1,13.1,7,17.666,17.666,0,0,1,10.728,6.806ZM1.534,6.734C.009,6.394-.322,5.718.29,4.291.882,2.907,1.488,1.525,2.1.119h3.62c-.69,1.62-1.351,3.171-2,4.689A2.1,2.1,0,0,0,6.834,4.33C7.365,3.161,7.859,1.974,8.373.8c.1-.224.207-.442.321-.685h2.748c-.091.257-.15.462-.233.657-.434,1.015-.938,2.005-1.29,3.049A4.336,4.336,0,0,1,6.167,6.787a13.169,13.169,0,0,1-2.259.2A10.865,10.865,0,0,1,1.534,6.734Zm113.356.131,1.216-2.942-2.191-3.8H117.8l1.073,2.243L121.734.126h2.971l-5.083,3.8-1.341,2.942Zm-13.4,0L107.928.126h3.783c.219,2.276.43,4.465.647,6.718h-3.584c-.06-.438-.115-.828-.175-1.252h-2.971c-.357.4-.763.845-1.156,1.273Zm5.548-2.9h1.637c-.033-.528-.062-1.011-.1-1.7C107.992,2.9,107.55,3.392,107.036,3.963ZM95.757,6.86V3.48L95.6,3.4Q94.15,5.133,92.706,6.858H89.6V.131h3.153V3.575c.051.031.106.062.159.093C93.9,2.474,94.9,1.28,95.87.112h2.8v3.48l.2.071c.994-1.175,1.984-2.35,3-3.556h2.775c-2.059,2.343-4.01,4.56-5.939,6.754Zm-30.748,0C66,4.565,66.955,2.35,67.917.122h8.6c-.241.566-.448,1.051-.679,1.6H70.763c-.128.28-.228.5-.4.875h4.1c-.268.632-.467,1.1-.679,1.6H69.68c-.133.321-.252.6-.421,1.013h5.064c-.281.643-.5,1.147-.721,1.658Zm-45.475,0c1-2.3,1.958-4.524,2.917-6.744h3.6c-.987,2.291-1.944,4.508-2.907,6.744Zm34.754-.009c.987-2.286,1.944-4.5,2.9-6.716H65.78c-.242.574-.447,1.059-.673,1.587H60.05c-.129.271-.238.506-.412.873h4.1c-.256.611-.452,1.08-.663,1.584h-4.1c-.145.319-.27.6-.448.994h5.06c-.264.64-.474,1.144-.7,1.677Zm-11.556,0c.989-2.29,1.942-4.494,2.864-6.63,2.424,0,4.72-.041,7.015.022A1.747,1.747,0,0,1,54.5,1.489c.211.971-.5,1.539-1.2,2a6.857,6.857,0,0,1-3.614.954c-.742.031-1.484,0-2.269,0-.373.825-.73,1.62-1.078,2.393ZM48.1,2.855c1.76.214,2.557-.031,2.819-1.007L48.577,1.7C48.388,2.156,48.251,2.493,48.1,2.855Z" transform="translate(10.558 3.295)"/>
    <path id="パス_2472" data-name="パス 2472" class="cls-3" d="M496.753,57.061a7.144,7.144,0,0,1-5.369-2.135,6.27,6.27,0,0,1,.051-9.032,7.642,7.642,0,0,1,10.382-.175,6.025,6.025,0,0,1,1.89,6.388,6.772,6.772,0,0,1-5.343,4.826,4.444,4.444,0,0,1-.732.124c-.291.021-.585.005-.878.005m5.593-8.354a2.16,2.16,0,0,0-1.838-1.363,10.276,10.276,0,0,0-4.948.17,6.058,6.058,0,0,0-2.067,1.08c-1.114.909-.9,1.919.482,2.324.965.283,1.985.373,2.976.573a6.868,6.868,0,0,1,.915.327,2.51,2.51,0,0,1-3.53-.158L491.213,52a1.83,1.83,0,0,0,1.588,1.631,10.323,10.323,0,0,0,5.411-.01,7.451,7.451,0,0,0,2.6-1.2c1.127-.856.851-2.015-.514-2.389-.971-.266-1.989-.356-2.983-.543-.308-.058-.605-.174-.948-.276a2.118,2.118,0,0,1,3.09-.02l2.893-.492" transform="translate(-451.168 -43.771)"/>
    <path id="パス_2480" data-name="パス 2480" class="cls-3" d="M212.077,70.651l-.437,1.041h3.636l-.658,1.543h-3.66l-1.107,2.5h-3.463l2.9-6.718h8.259l-.693,1.63Z" transform="translate(-206.387 -65.603)"/>
  </g>
  <g id="グループ_16894" data-name="グループ 16894">
    <path id="パス_2483" data-name="パス 2483" class="cls-3" d="M121.551,49.7h.373s-10.052-5.01-14.686-11.735c-3.357-4.871,9.739-4.635,9.739-4.635l.43-.235s-6.268-.3-8.688-.146-2.754.628-2.754.628.246-1.211,2.884-1.822a39.662,39.662,0,0,1,9.954-1l.575-.246s-8.946-.39-11.949-.17c-2.786.2-5.631,1.537-5.631,3.621,0,1.985,1.439,4.465,7.282,8.559A93.015,93.015,0,0,0,121.551,49.7" transform="translate(-88.018 -26.174)"/>
    <path id="パス_2484" data-name="パス 2484" d="M85.672,20.786l.56-.157s-7.819-.309-11.628-.241-5.946,1.99-5.87,3.849c.09,2.2,2.55,5.668,10,10.1A104.736,104.736,0,0,0,92.17,41.148h.448S79.325,35.143,74.4,29.457c-5.676-6.556,1.041-8.1,6.272-8.484,2.626-.193,5-.187,5-.187" transform="translate(-59.429 -17.62)"/>
    <path id="パス_2485" data-name="パス 2485" class="cls-4" d="M50.431,10.633l.582-.179s-5.376-.381-10.238-.269-6.478,2.532-6.34,4.167c.179,2.128,2.315,6,12.786,11.415s14.3,6.549,14.3,6.549h.6S43.714,24.68,39.07,17.9c-5.711-8.334,11.361-7.27,11.361-7.27" transform="translate(-29.767 -8.788)"/>
    <path id="パス_2486" data-name="パス 2486" class="cls-5" d="M15.579.471l.7-.194A97.719,97.719,0,0,0,6.214.041C.9.209-1.011,3.335.5,6.359S6.827,13.405,17.454,18.2s13.465,5.329,13.465,5.329h.523a118.285,118.285,0,0,1-12.524-5.553C13.3,15.068,6.943,11.838,4.66,8.058-.552-.575,15.579.471,15.579.471" transform="translate(0 0)"/>
  </g>
</svg>
