<svg id="icon" xmlns="http://www.w3.org/2000/svg" width="24" height="24" viewBox="0 0 24 24">
  <defs>
    <style>
      .cls-1, .cls-2 {
        fill: none;
      }

      .cls-2 {
        opacity: 0.87;
      }

      .cls-3 {
        fill: #fff;
      }
    </style>
  </defs>
  <g id="icon_lock_24">
    <g id="グループ_16854" data-name="グループ 16854">
      <path id="パス_2432" data-name="パス 2432" class="cls-1" d="M0,0H24V24H0Z"/>
      <path id="パス_2433" data-name="パス 2433" class="cls-2" d="M0,0H24V24H0Z"/>
    </g>
    <path id="パス_2434" data-name="パス 2434" class="cls-3" d="M18,8H17V6A5,5,0,0,0,7,6V8H6a2.006,2.006,0,0,0-2,2V20a2.006,2.006,0,0,0,2,2H18a2.006,2.006,0,0,0,2-2V10A2.006,2.006,0,0,0,18,8ZM9,6a3,3,0,0,1,6,0V8H9Zm9,14H6V10H18Zm-6-3a2,2,0,1,0-2-2A2.006,2.006,0,0,0,12,17Z"/>
  </g>
</svg>
