<svg xmlns="http://www.w3.org/2000/svg" width="25.273" height="25.273" viewBox="0 0 25.273 25.273">
  <defs>
    <style>
      .cls-1 {
        fill: #fff;
      }
    </style>
  </defs>
  <path id="close" class="cls-1" d="M21250.5,21473.832l-1.059-1.061a1.492,1.492,0,0,1,0-2.115l9.01-9.018-9.01-9.021a1.483,1.483,0,0,1,0-2.113l1.059-1.062a1.5,1.5,0,0,1,2.125,0l9.012,9.012,9.016-9.012a1.5,1.5,0,0,1,2.125,0l1.061,1.063a1.5,1.5,0,0,1,0,2.113l-9.018,9.021,9.008,9.018a1.485,1.485,0,0,1,0,2.115l-1.057,1.061a1.49,1.49,0,0,1-2.119,0l-9.016-9.012-9.012,9.012a1.5,1.5,0,0,1-2.125,0Z" transform="translate(-21249 -21449)"/>
</svg>
