<svg id="icon" xmlns="http://www.w3.org/2000/svg" width="24" height="24" viewBox="0 0 24 24">
  <defs>
    <style>
      .cls-1 {
        fill: none;
      }

      .cls-2 {
        fill: #fff;
      }
    </style>
  </defs>
  <g id="icon_tab_home_24">
    <path id="パス_17942" data-name="パス 17942" class="cls-1" d="M0,0H24V24H0Z"/>
    <path id="合体_123" data-name="合体 123" class="cls-2" d="M21754.746,21336H21750a1,1,0,0,1-1-1v-5h-2v5a1,1,0,0,1-1,1h-4.75a1.253,1.253,0,0,1-1.252-1.25V21327h-2a1,1,0,0,1-.67-1.744l10-9a1,1,0,0,1,1.338,0l10,9a1,1,0,0,1-.668,1.744h-2v7.748A1.253,1.253,0,0,1,21754.746,21336Zm-3.744-2h3v-11c0-.553.447,1,.334,1.043l-6.334-5.7-6.145,5.531c-.3,1.123.143-1.43.143-.877v11h3v-5a1,1,0,0,1,1-1h4a1,1,0,0,1,1,1Z" transform="translate(-21736 -21314)"/>
  </g>
</svg>
