<svg id="icon_event" xmlns="http://www.w3.org/2000/svg" width="24" height="24" viewBox="0 0 24 24">
  <defs>
    <style>
      .cls-1, .cls-2 {
        fill: #15191c;
      }

      .cls-1 {
        opacity: 0;
      }
    </style>
  </defs>
  <rect id="長方形_7534" data-name="長方形 7534" class="cls-1" width="24" height="24"/>
  <path id="合体_74" data-name="合体 74" class="cls-2" d="M15.314,9H7.51A3,3,0,0,1,1.955,6.986L1.912,7a.54.54,0,0,1-.024-.057C1.609,6.273,1.347,5.619,1.11,5h.8a1,1,0,0,0,1-1H.736C.6,3.629.487,3.293.391,3h.52a1,1,0,0,0,1-1H.1c-.04-.16-.068-.3-.088-.416a.5.5,0,0,1,.1-.418A.507.507,0,0,1,.511,1H2.233a.868.868,0,0,1,.894.541l.122.308c.131.329.291.734.46,1.16A6.022,6.022,0,0,1,8.912,0h3.109c1.381,0,2.393,1.049,3.287,1.976.719.744,1.4,1.448,2.165,1.513,4.733.4,5.44,3.17,5.44,4.784A.676.676,0,0,1,22.3,9H20.51a3,3,0,0,1-5.2,0Zm.6-1.5a2,2,0,1,0,2-2A2,2,0,0,0,15.912,7.5Zm-13,0a2,2,0,1,0,2-2A2,2,0,0,0,2.911,7.5ZM5.436,3.088a.583.583,0,0,0-.081.633.921.921,0,0,0,.854.43h7.323c.526,0,.872-.131.977-.369a.6.6,0,0,0-.194-.621c-.042-.045-.089-.1-.14-.153C13.694,2.48,12.8,1.5,12.021,1.5H8.912A4.444,4.444,0,0,0,5.436,3.088ZM16.912,7.5a1,1,0,1,1,1,1A1,1,0,0,1,16.912,7.5Zm-13,0a1,1,0,1,1,1,1A1,1,0,0,1,3.911,7.5Z" transform="translate(0.59 6.5)"/>
</svg>
